HIERARCHY
ROOT Hips
{
	OFFSET 0.000000 0.000000 0.000000
	CHANNELS 6 Xposition Yposition Zposition Xrotation Yrotation Zrotation
	JOINT LeftUpLeg_virtual
	{
		OFFSET 0.000000 0.000000 0.000000
		CHANNELS 3 Xrotation Yrotation Zrotation
		JOINT LeftUpLeg
		{
			OFFSET 11.394100 -6.187798 -0.413800
			CHANNELS 3 Xrotation Yrotation Zrotation
			JOINT LeftLeg
			{
				OFFSET 0.430247 -32.302673 3.732800
				CHANNELS 3 Xrotation Yrotation Zrotation
				JOINT LeftFoot
				{
					OFFSET -0.430247 -48.264931 -6.423300
					CHANNELS 3 Xrotation Yrotation Zrotation
					JOINT LeftToeBase
					{
						OFFSET 4.230900 -16.068199 23.438400
						CHANNELS 3 Xrotation Yrotation Zrotation
						JOINT LeftToe_End
						{
							OFFSET 4.510700 0.695400 19.974600
							CHANNELS 3 Xrotation Yrotation Zrotation
							End Site
							{
								OFFSET 0 0 0
							}
						}
					}
				}
			}
		}
	}
	JOINT RightUpLeg_virtual
	{
		OFFSET 0.000000 0.000000 0.000000
		CHANNELS 3 Xrotation Yrotation Zrotation
		JOINT RightUpLeg
		{
			OFFSET -11.333700 -6.187798 -0.413800
			CHANNELS 3 Xrotation Yrotation Zrotation
			JOINT RightLeg
			{
				OFFSET -0.430392 -32.302628 3.733000
				CHANNELS 3 Xrotation Yrotation Zrotation
				JOINT RightFoot
				{
					OFFSET 0.430392 -48.264973 -6.423500
					CHANNELS 3 Xrotation Yrotation Zrotation
					JOINT RightToeBase
					{
						OFFSET -4.230900 -16.068199 23.438400
						CHANNELS 3 Xrotation Yrotation Zrotation
						JOINT RightToe_End
						{
							OFFSET -4.510700 0.695400 19.974600
							CHANNELS 3 Xrotation Yrotation Zrotation
							End Site
							{
								OFFSET 0 0 0
							}
						}
					}
				}
			}
		}
	}
	JOINT Spine_virtual
	{
		OFFSET 0.000000 0.000000 0.000000
		CHANNELS 3 Xrotation Yrotation Zrotation
		JOINT Spine
		{
			OFFSET -0.002400 12.777504 0.315300
			CHANNELS 3 Xrotation Yrotation Zrotation
			JOINT Spine1
			{
				OFFSET -0.002067 5.816869 0.032633
				CHANNELS 3 Xrotation Yrotation Zrotation
				JOINT Spine1_split
				{
					OFFSET -0.002067 5.816869 0.032633
					CHANNELS 3 Xrotation Yrotation Zrotation
					JOINT Spine2
					{
						OFFSET -0.002067 5.816869 0.032633
						CHANNELS 3 Xrotation Yrotation Zrotation
						JOINT Neck_virtual
						{
							OFFSET 0.000000 0.000000 0.000000
							CHANNELS 3 Xrotation Yrotation Zrotation
							JOINT Neck
							{
								OFFSET -0.003700 21.199493 -0.826900
								CHANNELS 3 Xrotation Yrotation Zrotation
								JOINT Head
								{
									OFFSET 0.000000 20.442200 4.834800
									CHANNELS 3 Xrotation Yrotation Zrotation
									JOINT HeadTop_End
									{
										OFFSET 0.000000 34.668396 4.968400
										CHANNELS 3 Xrotation Yrotation Zrotation
										End Site
										{
											OFFSET 0 0 0
										}
									}
								}
							}
						}
						JOINT LeftShoulder_virtual
						{
							OFFSET 0.000000 0.000000 0.000000
							CHANNELS 3 Xrotation Yrotation Zrotation
							JOINT LeftShoulder
							{
								OFFSET 3.288150 8.794197 -1.372250
								CHANNELS 3 Xrotation Yrotation Zrotation
								JOINT LeftShoulder_split
								{
									OFFSET 3.288150 8.794197 -1.372250
									CHANNELS 3 Xrotation Yrotation Zrotation
									JOINT LeftArm
									{
										OFFSET 11.953299 -2.279007 -0.146200
										CHANNELS 3 Xrotation Yrotation Zrotation
										JOINT LeftForeArm
										{
											OFFSET 18.448900 0.000000 0.000000
											CHANNELS 3 Xrotation Yrotation Zrotation
											JOINT LeftHand
											{
												OFFSET 29.527798 0.000000 0.000000
												CHANNELS 3 Xrotation Yrotation Zrotation
												End Site
												{
													OFFSET 0 0 0
												}
											}
										}
									}
								}
							}
						}
						JOINT RightShoulder_virtual
						{
							OFFSET 0.000000 0.000000 0.000000
							CHANNELS 3 Xrotation Yrotation Zrotation
							JOINT RightShoulder
							{
								OFFSET -3.249400 8.794197 -1.372250
								CHANNELS 3 Xrotation Yrotation Zrotation
								JOINT RightShoulder_split
								{
									OFFSET -3.249400 8.794197 -1.372250
									CHANNELS 3 Xrotation Yrotation Zrotation
									JOINT RightArm
									{
										OFFSET -11.953299 -2.279007 -0.146200
										CHANNELS 3 Xrotation Yrotation Zrotation
										JOINT RightForeArm
										{
											OFFSET -18.448900 0.000000 0.000000
											CHANNELS 3 Xrotation Yrotation Zrotation
											JOINT RightHand
											{
												OFFSET -29.527802 0.000000 0.000000
												CHANNELS 3 Xrotation Yrotation Zrotation
												End Site
												{
													OFFSET 0 0 0
												}
											}
										}
									}
								}
							}
						}
					}
				}
			}
		}
	}
}
MOTION
Frames: 4
Frame Time: 0.03333333
-0.954409 97.495392 0.470207 0.000000 0.000000 0.000000 -2.437040 0.325950 -0.627969 -12.087894 2.417696 9.203827 23.084455 4.816011 2.161435 -9.987050 1.865809 -11.360021 2.228370 0.332408 -2.127812 0.000000 0.000000 0.000000 -2.147045 0.096487 -0.638562 -11.352366 2.047721 -3.293775 24.361123 -1.483372 -2.071130 -7.933053 -0.383969 4.792552 2.898929 0.215968 0.707641 0.000000 0.000000 0.000000 -2.161087 -1.333446 -0.825875 0.903310 -0.994724 0.072814 -1.325422 -0.289470 0.604768 1.154386 0.267343 -0.041376 0.000000 0.000000 0.000000 -1.635463 0.007344 0.524096 -0.466257 0.516794 -0.988623 4.687296 -2.727889 2.906266 0.000000 0.000000 0.000000 -1.679583 0.161247 0.311146 1.422233 -10.764037 -10.126089 -2.592748 0.479262 -2.008590 20.346939 -21.863920 -65.815109 -1.122546 -19.607996 0.794817 0.000000 0.000000 0.000000 -1.270251 0.124200 0.467093 1.661204 5.357237 10.852953 -0.851988 3.207315 -1.812548 6.238238 23.711736 66.227959 0.566231 16.437584 0.652171 0.000000 0.000000 0.000000 
-0.728333 97.637177 0.591206 0.000000 0.000000 0.000000 -2.329910 0.292443 -0.642757 -12.032904 2.097243 9.203002 23.037699 4.979803 2.183654 -9.844767 2.050388 -11.121743 2.176005 0.378115 -2.171306 0.000000 0.000000 0.000000 -2.086740 -0.002400 -0.662429 -10.946458 2.040358 -3.337767 23.926281 -1.497413 -2.170554 -7.577285 -0.408938 4.343053 2.210288 0.107487 1.026669 0.000000 0.000000 0.000000 -1.963818 -1.342142 -0.929358 0.732184 -0.945036 0.153781 -1.247992 -0.302403 0.607897 1.228959 0.450140 0.043262 0.000000 0.000000 0.000000 -1.643895 -0.017592 0.542401 -0.543651 0.596185 -0.973022 4.607235 -2.745136 2.772924 0.000000 0.000000 0.000000 -1.657689 0.164847 0.313219 1.414752 -10.822633 -10.244017 -2.505295 0.436618 -1.965199 20.397428 -21.956009 -65.838161 -1.103977 -19.643368 0.684283 0.000000 0.000000 0.000000 -1.232377 0.123573 0.459326 1.665299 5.545294 10.947668 -0.795729 3.290469 -1.787073 6.385248 23.902314 66.066849 0.618674 16.382979 0.652013 0.000000 0.000000 0.000000 
-0.550635 97.776512 0.730404 0.000000 0.000000 0.000000 -2.331314 0.111043 -0.668862 -12.087182 2.056676 9.199161 23.028980 5.332146 2.208159 -9.661626 2.134032 -10.773028 2.117629 0.456514 -2.130187 0.000000 0.000000 0.000000 -2.010494 -0.074563 -0.742254 -10.463906 2.036370 -3.394517 23.432540 -1.447899 -2.309333 -7.946526 -0.402734 3.573321 2.080060 0.090461 1.184019 0.000000 0.000000 0.000000 -1.736826 -1.414172 -1.080523 0.644080 -0.860717 0.319117 -1.130501 -0.302327 0.589540 1.260192 0.479942 0.058934 0.000000 0.000000 0.000000 -1.586016 -0.042095 0.532697 -0.565859 0.744292 -1.016598 4.325985 -2.730636 2.678312 0.000000 0.000000 0.000000 -1.596691 0.168126 0.290065 1.406350 -10.933599 -10.380058 -2.467517 0.571242 -1.874635 20.337911 -21.954581 -65.872557 -1.054646 -19.827281 0.578896 0.000000 0.000000 0.000000 -1.156684 0.109424 0.423036 1.699128 5.724624 11.044361 -0.686525 3.398846 -1.799489 6.654370 24.316156 65.654900 0.697539 16.482886 0.636256 0.000000 0.000000 0.000000 
-0.393205 97.825584 0.790562 0.000000 0.000000 0.000000 -2.377772 -0.210174 -0.680482 -12.230564 2.321826 9.113414 23.055529 5.846354 2.230676 -9.557006 2.125078 -10.411215 2.055450 0.553726 -1.975937 0.000000 0.000000 0.000000 -1.872351 -0.177409 -0.805209 -10.219882 2.018104 -3.525222 23.160176 -1.317894 -2.381949 -8.620257 -0.381678 2.816348 2.277657 0.123806 1.120790 0.000000 0.000000 0.000000 -1.515783 -1.553699 -1.200738 0.645864 -0.762327 0.510031 -0.980760 -0.278811 0.551992 1.190226 0.423084 -0.051505 0.000000 0.000000 0.000000 -1.466770 -0.050600 0.500401 -0.541402 0.920862 -1.103529 3.831000 -2.687548 2.646073 0.000000 0.000000 0.000000 -1.506735 0.180757 0.246684 1.393050 -11.082483 -10.515918 -2.534912 0.740124 -1.797224 20.235579 -21.948272 -65.777775 -0.994372 -20.093131 0.465264 0.000000 0.000000 0.000000 -1.052125 0.093723 0.363084 1.767078 5.884389 11.108379 -0.524488 3.496045 -1.839902 6.933719 24.871608 65.086717 0.776496 16.693635 0.618518 0.000000 0.000000 0.000000 
